# xmcd
#
# Track frame offsets:
#	150
#	13191
#	41306
#	62817
#	89064
#	113975
#	134538
#	152218
#	169354
#	187048
#	207793
#	228116
#	251634
#	275039
#
# Disc length: 3881 seconds
#
# Revision: 4
# Processed by: cddbd v1.5.2PL0 Copyright (c) Steve Scherf et al.
# Submitted via: audiograbber 1.83.01
#
DISCID=ce0f270e
DTITLE=Rimshop Presents - N.E.W.S. (North East West South)
DYEAR=1999
DGENRE=Hip-Hop
TTITLE0=Too Short, Layzie Bone - Something About Your Pimpin'
TTITLE1=Kool-Ace, UGK, Too Short - Pimpin' Ain't No Illusion
TTITLE2=Paper View - Something About The Game
TTITLE3=Playas United - I'm Gone
TTITLE4=Lil' Jon, The East Side Boyz, The Fulltime Family - Swing
TTITLE5=Jay Mac, Murda One, Slink Capone - Snitches and Bitches
TTITLE6=Beanie Sigel - Peep The Steelo
TTITLE7=Jamal, Keith Murray - All My Dogs
TTITLE8=T.W.D.Y. - Lifestyles
TTITLE9=Truck Turner - My Pimpin' (We Don't Trust Them Hoes)
TTITLE10=Newsense - Universal Sessions
TTITLE11=G-Side - It's All About Me
TTITLE12=C.O.L. - Cash Rules
TTITLE13=Free Style Lee - MC's
EXTD=www.RapMusicGuide.com
EXTT0=
EXTT1=
EXTT2=
EXTT3=
EXTT4=
EXTT5=
EXTT6=
EXTT7=
EXTT8=
EXTT9=
EXTT10=
EXTT11=
EXTT12=
EXTT13=
PLAYORDER=
